<svg width="64" height="64" viewBox="0 0 64 64" fill="none" xmlns="http://www.w3.org/2000/svg">
<path d="M39.4001 21.66C42.5001 21.66 45.0101 24.17 45.0101 27.27V36.72C45.0101 39.82 42.5001 42.33 39.4001 42.33H28.6401C27.0001 42.33 25.4301 41.61 24.3701 40.36L20.3401 35.63C18.5501 33.53 18.5501 30.45 20.3401 28.35L24.3601 23.63L24.5701 23.4C25.6201 22.29 27.0901 21.66 28.6401 21.66H39.4001ZM37.2201 28.45C36.7601 27.99 36.0401 27.96 35.5501 28.36L35.4601 28.45L33.6801 30.23L31.9001 28.45L31.8101 28.36C31.3201 27.96 30.5901 27.99 30.1401 28.45C29.6801 28.91 29.6501 29.63 30.0501 30.12L30.1401 30.21L31.9201 31.99L30.1401 33.77C29.6501 34.26 29.6501 35.05 30.1401 35.54C30.6301 36.03 31.4201 36.03 31.9101 35.54L33.6901 33.76L35.4701 35.54L35.5601 35.63C36.0501 36.03 36.7801 36 37.2301 35.54C37.6901 35.08 37.7201 34.36 37.3201 33.87L37.2301 33.78L35.4501 32L37.2301 30.22L37.3201 30.13C37.7201 29.64 37.6901 28.91 37.2301 28.46L37.2201 28.45Z" fill="#565B5F"/>
</svg>
