<svg width="24" height="24" viewBox="0 0 24 24" fill="none" xmlns="http://www.w3.org/2000/svg">
<path d="M3.01202 6.59699C2.89202 7.65699 3.65802 10.195 5.87702 10.255M18.29 10.195C19.368 10.255 20.987 8.99499 20.987 6.59699M20.088 20.988C20.148 19.608 19.248 17.474 17.509 17.414M3.90102 20.988C3.84102 19.6 4.75902 17.451 6.53702 17.391M3.01202 13.793H5.21802M21 13.793H18.828M11.993 13.793V10.855M16.49 2.99999L14.691 4.79899M7.49602 2.99899L9.29502 4.79899M6.95602 8.61199C8.57502 9.77499 12.592 11.454 16.97 8.68399" stroke="#868A8D" stroke-width="1.3" stroke-linecap="round"/>
<path d="M16.8261 7.67701C13.2521 2.70001 8.69608 5.09801 7.07608 7.82101C6.02108 9.59501 4.37808 13.889 7.49608 18.566C10.8541 22.666 14.8111 20.808 16.4301 18.649C17.9901 16.791 19.5241 11.994 16.8261 7.67701Z" stroke="#868A8D" stroke-width="1.3" stroke-linecap="round"/>
</svg>
