<svg width="32" height="32" viewBox="0 0 32 32" fill="none" xmlns="http://www.w3.org/2000/svg">
<path d="M23.4001 5.66C26.5001 5.66 29.0101 8.17 29.0101 11.27V20.72C29.0101 23.82 26.5001 26.33 23.4001 26.33H12.6401C11.0001 26.33 9.43006 25.61 8.37006 24.36L4.34006 19.63C2.55006 17.53 2.55006 14.45 4.34006 12.35L8.36006 7.63L8.57006 7.4C9.62006 6.29 11.0901 5.66 12.6401 5.66H23.4001ZM21.2201 12.45C20.7601 11.99 20.0401 11.96 19.5501 12.36L19.4601 12.45L17.6801 14.23L15.9001 12.45L15.8101 12.36C15.3201 11.96 14.5901 11.99 14.1401 12.45C13.6801 12.91 13.6501 13.63 14.0501 14.12L14.1401 14.21L15.9201 15.99L14.1401 17.77C13.6501 18.26 13.6501 19.05 14.1401 19.54C14.6301 20.03 15.4201 20.03 15.9101 19.54L17.6901 17.76L19.4701 19.54L19.5601 19.63C20.0501 20.03 20.7801 20 21.2301 19.54C21.6901 19.08 21.7201 18.36 21.3201 17.87L21.2301 17.78L19.4501 16L21.2301 14.22L21.3201 14.13C21.7201 13.64 21.6901 12.91 21.2301 12.46L21.2201 12.45Z" fill="#565B5F"/>
</svg>
