<svg width="36" height="36" viewBox="0 0 36 36" fill="none" xmlns="http://www.w3.org/2000/svg">
<rect width="36" height="36" rx="8" fill="white" fill-opacity="0.05"/>
<path d="M9.01202 12.597C8.89202 13.657 9.65802 16.195 11.877 16.255M24.29 16.195C25.368 16.255 26.987 14.995 26.987 12.597M26.088 26.988C26.148 25.608 25.248 23.474 23.509 23.414M9.90102 26.988C9.84102 25.6 10.759 23.451 12.537 23.391M9.01202 19.793H11.218M27 19.793H24.828M17.993 19.793V16.855M22.49 8.99999L20.691 10.799M13.496 8.99899L15.295 10.799M12.956 14.612C14.575 15.775 18.592 17.454 22.97 14.684" stroke="#868A8D" stroke-width="1.3" stroke-linecap="round"/>
<path d="M22.8261 13.677C19.2521 8.70001 14.6961 11.098 13.0761 13.821C12.0211 15.595 10.3781 19.889 13.4961 24.566C16.8541 28.666 20.8111 26.808 22.4301 24.649C23.9901 22.791 25.5241 17.994 22.8261 13.677Z" stroke="#868A8D" stroke-width="1.3" stroke-linecap="round"/>
</svg>
