<svg width="25" height="24" viewBox="0 0 25 24" fill="none" xmlns="http://www.w3.org/2000/svg">
<path fill-rule="evenodd" clip-rule="evenodd" d="M16.0626 2.301C15.5426 2.25 14.9106 2.25 14.1406 2.25H10.1926C9.42263 2.25 8.79063 2.25 8.27063 2.301C7.72563 2.355 7.24563 2.468 6.79063 2.73C6.33563 2.991 5.99663 3.35 5.67663 3.793C5.37163 4.217 5.05563 4.763 4.66963 5.428L2.70963 8.808C2.32163 9.475 2.00363 10.024 1.78663 10.5C1.55863 11 1.41663 11.474 1.41663 12C1.41663 12.526 1.55863 13 1.78663 13.5C2.00363 13.977 2.32163 14.525 2.70863 15.192L4.66863 18.572C5.05563 19.237 5.37163 19.783 5.67663 20.207C5.99663 20.651 6.33663 21.009 6.79063 21.27C7.24563 21.532 7.72563 21.645 8.27063 21.699C8.79063 21.75 9.42263 21.75 10.1926 21.75H14.1406C14.9106 21.75 15.5426 21.75 16.0626 21.699C16.6076 21.645 17.0876 21.532 17.5426 21.27C17.9976 21.009 18.3366 20.65 18.6566 20.207C18.9616 19.783 19.2776 19.237 19.6636 18.572L21.6236 15.192C22.0116 14.525 22.3296 13.976 22.5466 13.5C22.7746 13 22.9166 12.526 22.9166 12C22.9166 11.474 22.7746 11 22.5466 10.5C22.3296 10.024 22.0116 9.475 21.6246 8.808L19.6646 5.428C19.2776 4.763 18.9616 4.217 18.6566 3.793C18.3366 3.349 17.9966 2.991 17.5426 2.73C17.0876 2.468 16.6076 2.355 16.0626 2.301ZM12.1666 15.5C12.6263 15.5 13.0814 15.4095 13.506 15.2336C13.9307 15.0577 14.3165 14.7999 14.6415 14.4749C14.9665 14.1499 15.2243 13.764 15.4002 13.3394C15.5761 12.9148 15.6666 12.4596 15.6666 12C15.6666 11.5404 15.5761 11.0852 15.4002 10.6606C15.2243 10.236 14.9665 9.85013 14.6415 9.52513C14.3165 9.20012 13.9307 8.94231 13.506 8.76642C13.0814 8.59053 12.6263 8.5 12.1666 8.5C11.2384 8.5 10.3481 8.86875 9.69175 9.52513C9.03538 10.1815 8.66663 11.0717 8.66663 12C8.66663 12.9283 9.03538 13.8185 9.69175 14.4749C10.3481 15.1313 11.2384 15.5 12.1666 15.5Z" fill="#868A8D"/>
</svg>
