<svg width="36" height="36" viewBox="0 0 36 36" fill="none" xmlns="http://www.w3.org/2000/svg">
<rect width="36" height="36" rx="8" fill="white" fill-opacity="0.05"/>
<path d="M10.5 13.3125H25.5" stroke="#868A8D" stroke-width="1.3" stroke-linecap="round" stroke-linejoin="round"/>
<path d="M16.125 17.0625V22.6875" stroke="#868A8D" stroke-width="1.3" stroke-linecap="round" stroke-linejoin="round"/>
<path d="M19.875 17.0625V22.6875" stroke="#868A8D" stroke-width="1.3" stroke-linecap="round" stroke-linejoin="round"/>
<path d="M11.4375 13.3125L12.375 24.5625C12.375 25.0598 12.5725 25.5367 12.9242 25.8883C13.2758 26.24 13.7527 26.4375 14.25 26.4375H21.75C22.2473 26.4375 22.7242 26.24 23.0758 25.8883C23.4275 25.5367 23.625 25.0598 23.625 24.5625L24.5625 13.3125" stroke="#868A8D" stroke-width="1.3" stroke-linecap="round" stroke-linejoin="round"/>
<path d="M15.1875 13.3125V10.5C15.1875 10.2514 15.2863 10.0129 15.4621 9.83709C15.6379 9.66127 15.8764 9.5625 16.125 9.5625H19.875C20.1236 9.5625 20.3621 9.66127 20.5379 9.83709C20.7137 10.0129 20.8125 10.2514 20.8125 10.5V13.3125" stroke="#868A8D" stroke-width="1.3" stroke-linecap="round" stroke-linejoin="round"/>
</svg>
