<svg width="25" height="24" viewBox="0 0 25 24" fill="none" xmlns="http://www.w3.org/2000/svg">
<path fill-rule="evenodd" clip-rule="evenodd" d="M16.0625 2.301C15.5425 2.25 14.9105 2.25 14.1405 2.25H10.1925C9.4225 2.25 8.7905 2.25 8.2705 2.301C7.7255 2.355 7.2455 2.468 6.7905 2.73C6.3355 2.991 5.9965 3.35 5.6765 3.793C5.3715 4.217 5.0555 4.763 4.6695 5.428L2.7095 8.808C2.3215 9.475 2.0035 10.024 1.7865 10.5C1.5585 11 1.4165 11.474 1.4165 12C1.4165 12.526 1.5585 13 1.7865 13.5C2.0035 13.977 2.3215 14.525 2.7085 15.192L4.6685 18.572C5.0555 19.237 5.3715 19.783 5.6765 20.207C5.9965 20.651 6.3365 21.009 6.7905 21.27C7.2455 21.532 7.7255 21.645 8.2705 21.699C8.7905 21.75 9.4225 21.75 10.1925 21.75H14.1405C14.9105 21.75 15.5425 21.75 16.0625 21.699C16.6075 21.645 17.0875 21.532 17.5425 21.27C17.9975 21.009 18.3365 20.65 18.6565 20.207C18.9615 19.783 19.2775 19.237 19.6635 18.572L21.6235 15.192C22.0115 14.525 22.3295 13.976 22.5465 13.5C22.7745 13 22.9165 12.526 22.9165 12C22.9165 11.474 22.7745 11 22.5465 10.5C22.3295 10.024 22.0115 9.475 21.6245 8.808L19.6645 5.428C19.2775 4.763 18.9615 4.217 18.6565 3.793C18.3365 3.349 17.9965 2.991 17.5425 2.73C17.0875 2.468 16.6075 2.355 16.0625 2.301ZM12.1665 15.5C12.6261 15.5 13.0813 15.4095 13.5059 15.2336C13.9305 15.0577 14.3164 14.7999 14.6414 14.4749C14.9664 14.1499 15.2242 13.764 15.4001 13.3394C15.576 12.9148 15.6665 12.4596 15.6665 12C15.6665 11.5404 15.576 11.0852 15.4001 10.6606C15.2242 10.236 14.9664 9.85013 14.6414 9.52513C14.3164 9.20012 13.9305 8.94231 13.5059 8.76642C13.0813 8.59053 12.6261 8.5 12.1665 8.5C11.2382 8.5 10.348 8.86875 9.69163 9.52513C9.03525 10.1815 8.6665 11.0717 8.6665 12C8.6665 12.9283 9.03525 13.8185 9.69163 14.4749C10.348 15.1313 11.2382 15.5 12.1665 15.5Z" fill="white"/>
</svg>
