<svg width="36" height="36" viewBox="0 0 36 36" fill="none" xmlns="http://www.w3.org/2000/svg">
<rect width="36" height="36" rx="8" fill="white" fill-opacity="0.05"/>
<path d="M18.0009 14.9988V13.9983" stroke="#868A8D" stroke-width="1.3" stroke-linecap="round" stroke-linejoin="round"/>
<path d="M18.0009 21.0013V22.0017" stroke="#868A8D" stroke-width="1.3" stroke-linecap="round" stroke-linejoin="round"/>
<path d="M16.2653 20.2867C16.5216 20.7274 16.9914 21.0003 17.5013 21.0047H18.5977C19.3069 21.0041 19.9045 20.4751 19.9912 19.7712C20.0778 19.0673 19.6263 18.4092 18.9384 18.2367L17.0634 17.7656C16.3755 17.5931 15.924 16.935 16.0106 16.2311C16.0973 15.5272 16.6949 14.9982 17.4041 14.9976H18.5005C19.0094 15.0011 19.4787 15.2727 19.7353 15.7122" stroke="#868A8D" stroke-width="1.3" stroke-linecap="round" stroke-linejoin="round"/>
<path d="M18.0001 8.99625C22.9727 8.99625 27.0038 13.0274 27.0038 18C27.0038 22.9726 22.9727 27.0037 18.0001 27.0037C13.0275 27.0037 8.99634 22.9726 8.99634 18C8.99634 13.0274 13.0275 8.99625 18.0001 8.99625" stroke="#868A8D" stroke-width="1.3" stroke-linecap="round" stroke-linejoin="round"/>
<path d="M18.0001 8.99625C22.9727 8.99625 27.0038 13.0274 27.0038 18C27.0038 22.9726 22.9727 27.0037 18.0001 27.0037C13.0275 27.0037 8.99634 22.9726 8.99634 18C8.99634 13.0274 13.0275 8.99625 18.0001 8.99625" stroke="#868A8D" stroke-width="1.3" stroke-linecap="round" stroke-linejoin="round"/>
</svg>
