<svg width="160" height="42" viewBox="0 0 160 42" fill="none" xmlns="http://www.w3.org/2000/svg">
<path d="M22.4391 41.156C20.5351 41.156 18.8831 40.932 17.4831 40.484C16.1111 40.036 15.0331 39.224 14.2491 38.048C13.4931 36.872 13.1151 35.192 13.1151 33.008V28.304H19.5411V33.302C19.5411 34.114 19.7651 34.73 20.2131 35.15C20.6891 35.598 21.3331 35.822 22.1451 35.822H26.7231V41.156H22.4391ZM16.4331 32.798C13.6611 32.798 11.2391 32.322 9.16706 31.37C7.12306 30.39 5.42906 29.116 4.08506 27.548C2.74106 25.952 1.73306 24.23 1.06106 22.382C0.417063 20.534 0.0950626 18.756 0.0950626 17.048V16.124C0.0950626 14.22 0.431063 12.344 1.10306 10.496C1.80306 8.62 2.83906 6.926 4.21106 5.414C5.58306 3.902 7.29106 2.698 9.33506 1.802C11.3791 0.877998 13.7451 0.415999 16.4331 0.415999C19.1211 0.415999 21.4871 0.877998 23.5311 1.802C25.5751 2.698 27.2831 3.902 28.6551 5.414C30.0271 6.926 31.0631 8.62 31.7631 10.496C32.4631 12.344 32.8131 14.22 32.8131 16.124V17.048C32.8131 18.756 32.4771 20.534 31.8051 22.382C31.1331 24.23 30.1251 25.952 28.7811 27.548C27.4371 29.116 25.7291 30.39 23.6571 31.37C21.6131 32.322 19.2051 32.798 16.4331 32.798ZM16.4331 26.372C17.8891 26.372 19.1911 26.12 20.3391 25.616C21.5151 25.112 22.5091 24.412 23.3211 23.516C24.1611 22.62 24.7911 21.584 25.2111 20.408C25.6311 19.232 25.8411 17.972 25.8411 16.628C25.8411 15.2 25.6171 13.898 25.1691 12.722C24.7491 11.518 24.1191 10.482 23.2791 9.614C22.4671 8.718 21.4871 8.032 20.3391 7.556C19.1911 7.08 17.8891 6.842 16.4331 6.842C14.9771 6.842 13.6751 7.08 12.5271 7.556C11.3791 8.032 10.3851 8.718 9.54506 9.614C8.73306 10.482 8.11706 11.518 7.69706 12.722C7.27706 13.898 7.06706 15.2 7.06706 16.628C7.06706 17.972 7.27706 19.232 7.69706 20.408C8.11706 21.584 8.73306 22.62 9.54506 23.516C10.3851 24.412 11.3791 25.112 12.5271 25.616C13.6751 26.12 14.9771 26.372 16.4331 26.372ZM45.4239 32.714C42.7639 32.714 40.7199 31.86 39.2919 30.152C37.8639 28.416 37.1499 25.812 37.1499 22.34V8.984H43.8699V22.676C43.8699 23.908 44.2199 24.888 44.9199 25.616C45.6199 26.344 46.5579 26.708 47.7339 26.708C48.9379 26.708 49.9179 26.33 50.6739 25.574C51.4299 24.818 51.8079 23.796 51.8079 22.508V8.984H58.5279V32H53.1939V22.298H53.6559C53.6559 24.622 53.3479 26.568 52.7319 28.136C52.1439 29.676 51.2619 30.824 50.0859 31.58C48.9099 32.336 47.4539 32.714 45.7179 32.714H45.4239ZM78.6262 32V25.196H77.4922V17.804C77.4922 16.628 77.2122 15.746 76.6522 15.158C76.0922 14.57 75.1962 14.276 73.9642 14.276C73.3482 14.276 72.5362 14.29 71.5282 14.318C70.5202 14.346 69.4842 14.388 68.4202 14.444C67.3562 14.5 66.3902 14.556 65.5222 14.612V8.942C66.1662 8.886 66.9222 8.83 67.7902 8.774C68.6582 8.718 69.5542 8.676 70.4782 8.648C71.4022 8.62 72.2702 8.606 73.0822 8.606C75.4342 8.606 77.4082 8.942 79.0042 9.614C80.6282 10.286 81.8602 11.308 82.7002 12.68C83.5402 14.024 83.9602 15.76 83.9602 17.888V32H78.6262ZM71.2762 32.588C69.6242 32.588 68.1682 32.294 66.9082 31.706C65.6762 31.118 64.7102 30.278 64.0102 29.186C63.3102 28.066 62.9602 26.736 62.9602 25.196C62.9602 23.516 63.3942 22.144 64.2622 21.08C65.1302 19.988 66.3482 19.19 67.9162 18.686C69.4842 18.154 71.2902 17.888 73.3342 17.888H78.2482V21.626H73.2922C72.1162 21.626 71.2062 21.92 70.5622 22.508C69.9462 23.068 69.6382 23.838 69.6382 24.818C69.6382 25.742 69.9462 26.498 70.5622 27.086C71.2062 27.646 72.1162 27.926 73.2922 27.926C74.0482 27.926 74.7202 27.8 75.3082 27.548C75.9242 27.268 76.4282 26.806 76.8202 26.162C77.2122 25.518 77.4362 24.622 77.4922 23.474L79.0882 25.154C78.9482 26.75 78.5562 28.094 77.9122 29.186C77.2962 30.278 76.4282 31.118 75.3082 31.706C74.2162 32.294 72.8722 32.588 71.2762 32.588ZM89.6617 32V8.984H94.9957V18.854H94.6177C94.6177 16.502 94.9117 14.542 95.4997 12.974C96.1157 11.406 97.0397 10.23 98.2717 9.446C99.5037 8.662 101.002 8.27 102.766 8.27H103.06C105.748 8.27 107.792 9.152 109.192 10.916C110.62 12.652 111.334 15.298 111.334 18.854V32H104.614V18.476C104.614 17.244 104.25 16.236 103.522 15.452C102.794 14.668 101.814 14.276 100.582 14.276C99.3217 14.276 98.2997 14.682 97.5157 15.494C96.7597 16.278 96.3817 17.314 96.3817 18.602V32H89.6617ZM127.518 32.294C125.194 32.294 123.318 32.014 121.89 31.454C120.462 30.866 119.412 29.9 118.74 28.556C118.096 27.184 117.774 25.336 117.774 23.012V2.768H124.032V23.264C124.032 24.356 124.312 25.196 124.872 25.784C125.46 26.344 126.286 26.624 127.35 26.624H130.752V32.294H127.518ZM114.288 13.898V8.984H130.752V13.898H114.288ZM146.403 32.798C144.387 32.798 142.595 32.49 141.027 31.874C139.459 31.23 138.129 30.362 137.037 29.27C135.973 28.178 135.161 26.932 134.601 25.532C134.041 24.104 133.761 22.606 133.761 21.038V20.072C133.761 18.476 134.041 16.964 134.601 15.536C135.189 14.08 136.029 12.806 137.121 11.714C138.241 10.622 139.585 9.768 141.153 9.152C142.721 8.508 144.471 8.186 146.403 8.186C148.391 8.186 150.155 8.508 151.695 9.152C153.263 9.768 154.593 10.622 155.685 11.714C156.777 12.806 157.617 14.08 158.205 15.536C158.793 16.964 159.087 18.476 159.087 20.072V21.038C159.087 22.606 158.807 24.104 158.247 25.532C157.687 26.932 156.861 28.178 155.769 29.27C154.705 30.362 153.389 31.23 151.821 31.874C150.253 32.49 148.447 32.798 146.403 32.798ZM146.403 27.128C147.719 27.128 148.811 26.848 149.679 26.288C150.547 25.728 151.205 24.944 151.653 23.936C152.129 22.928 152.367 21.808 152.367 20.576C152.367 19.26 152.129 18.112 151.653 17.132C151.177 16.124 150.491 15.326 149.595 14.738C148.727 14.15 147.663 13.856 146.403 13.856C145.171 13.856 144.107 14.15 143.211 14.738C142.315 15.326 141.629 16.124 141.153 17.132C140.705 18.112 140.481 19.26 140.481 20.576C140.481 21.808 140.705 22.928 141.153 23.936C141.601 24.944 142.273 25.728 143.169 26.288C144.065 26.848 145.143 27.128 146.403 27.128Z" fill="white"/>
</svg>
