<svg width="25" height="24" viewBox="0 0 25 24" fill="none" xmlns="http://www.w3.org/2000/svg">
<path fill-rule="evenodd" clip-rule="evenodd" d="M17.812 1.93C16.469 1.75 14.748 1.75 12.557 1.75H12.443C10.253 1.75 8.531 1.75 7.188 1.93C5.811 2.116 4.719 2.503 3.861 3.36C3.003 4.22 2.616 5.311 2.431 6.688C2.25 8.031 2.25 9.752 2.25 11.943V12.057C2.25 14.247 2.25 15.969 2.43 17.312C2.616 18.689 3.003 19.781 3.86 20.639C4.72 21.497 5.811 21.884 7.188 22.069C8.531 22.25 10.252 22.25 12.443 22.25H12.557C14.747 22.25 16.469 22.25 17.812 22.07C19.189 21.884 20.281 21.497 21.139 20.64C21.997 19.78 22.384 18.689 22.569 17.312C22.75 15.969 22.75 14.248 22.75 12.057V11.943C22.75 9.753 22.75 8.031 22.57 6.688C22.384 5.311 21.997 4.219 21.14 3.361C20.28 2.503 19.189 2.116 17.812 1.931M8.25 13C8.25 12.8011 8.17098 12.6103 8.03033 12.4697C7.88968 12.329 7.69891 12.25 7.5 12.25C7.30109 12.25 7.11032 12.329 6.96967 12.4697C6.82902 12.6103 6.75 12.8011 6.75 13V17C6.75 17.1989 6.82902 17.3897 6.96967 17.5303C7.11032 17.671 7.30109 17.75 7.5 17.75C7.69891 17.75 7.88968 17.671 8.03033 17.5303C8.17098 17.3897 8.25 17.1989 8.25 17V13ZM12.5 6.25C12.6989 6.25 12.8897 6.32902 13.0303 6.46967C13.171 6.61032 13.25 6.80109 13.25 7V17C13.25 17.1989 13.171 17.3897 13.0303 17.5303C12.8897 17.671 12.6989 17.75 12.5 17.75C12.3011 17.75 12.1103 17.671 11.9697 17.5303C11.829 17.3897 11.75 17.1989 11.75 17V7C11.75 6.80109 11.829 6.61032 11.9697 6.46967C12.1103 6.32902 12.3011 6.25 12.5 6.25ZM18.25 11C18.25 10.8011 18.171 10.6103 18.0303 10.4697C17.8897 10.329 17.6989 10.25 17.5 10.25C17.3011 10.25 17.1103 10.329 16.9697 10.4697C16.829 10.6103 16.75 10.8011 16.75 11V17C16.75 17.1989 16.829 17.3897 16.9697 17.5303C17.1103 17.671 17.3011 17.75 17.5 17.75C17.6989 17.75 17.8897 17.671 18.0303 17.5303C18.171 17.3897 18.25 17.1989 18.25 17V11Z" fill="white"/>
</svg>
