<svg width="25" height="24" viewBox="0 0 25 24" fill="none" xmlns="http://www.w3.org/2000/svg">
<path fill-rule="evenodd" clip-rule="evenodd" d="M7.83331 1.125C8.09853 1.125 8.35288 1.23036 8.54042 1.41789C8.72796 1.60543 8.83331 1.85978 8.83331 2.125V4.125C8.83331 4.39022 8.72796 4.64457 8.54042 4.83211C8.35288 5.01964 8.09853 5.125 7.83331 5.125C7.5681 5.125 7.31374 5.01964 7.12621 4.83211C6.93867 4.64457 6.83331 4.39022 6.83331 4.125V2.125C6.83331 1.85978 6.93867 1.60543 7.12621 1.41789C7.31374 1.23036 7.5681 1.125 7.83331 1.125ZM12.8333 1.125C13.0985 1.125 13.3529 1.23036 13.5404 1.41789C13.728 1.60543 13.8333 1.85978 13.8333 2.125V4.125C13.8333 4.39022 13.728 4.64457 13.5404 4.83211C13.3529 5.01964 13.0985 5.125 12.8333 5.125C12.5681 5.125 12.3137 5.01964 12.1262 4.83211C11.9387 4.64457 11.8333 4.39022 11.8333 4.125V2.125C11.8333 1.85978 11.9387 1.60543 12.1262 1.41789C12.3137 1.23036 12.5681 1.125 12.8333 1.125ZM17.8333 1.125C18.0985 1.125 18.3529 1.23036 18.5404 1.41789C18.728 1.60543 18.8333 1.85978 18.8333 2.125V4.125C18.8333 4.39022 18.728 4.64457 18.5404 4.83211C18.3529 5.01964 18.0985 5.125 17.8333 5.125C17.5681 5.125 17.3137 5.01964 17.1262 4.83211C16.9387 4.64457 16.8333 4.39022 16.8333 4.125V2.125C16.8333 1.85978 16.9387 1.60543 17.1262 1.41789C17.3137 1.23036 17.5681 1.125 17.8333 1.125Z" fill="white"/>
<path fill-rule="evenodd" clip-rule="evenodd" d="M14.3893 2.375H11.2773C9.67531 2.375 8.39631 2.375 7.39331 2.51C6.35631 2.65 5.50331 2.945 4.82831 3.62C4.15331 4.295 3.85831 5.148 3.71831 6.185C3.58331 7.188 3.58331 8.467 3.58331 10.069V15.181C3.58331 16.783 3.58331 18.062 3.71831 19.065C3.85831 20.102 4.15331 20.955 4.82831 21.63C5.50331 22.305 6.35631 22.6 7.39331 22.74C8.39631 22.875 9.67531 22.875 11.2773 22.875H14.3893C15.9913 22.875 17.2703 22.875 18.2733 22.74C19.3103 22.6 20.1633 22.305 20.8383 21.63C21.5133 20.955 21.8083 20.102 21.9483 19.065C22.0833 18.062 22.0833 16.783 22.0833 15.181V10.069C22.0833 8.467 22.0833 7.188 21.9483 6.185C21.8083 5.148 21.5133 4.295 20.8383 3.62C20.1633 2.945 19.3103 2.65 18.2733 2.51C17.2703 2.375 15.9913 2.375 14.3893 2.375ZM8.83331 9.125C8.5681 9.125 8.31374 9.23036 8.12621 9.41789C7.93867 9.60543 7.83331 9.85978 7.83331 10.125C7.83331 10.3902 7.93867 10.6446 8.12621 10.8321C8.31374 11.0196 8.5681 11.125 8.83331 11.125H16.8333C17.0985 11.125 17.3529 11.0196 17.5404 10.8321C17.728 10.6446 17.8333 10.3902 17.8333 10.125C17.8333 9.85978 17.728 9.60543 17.5404 9.41789C17.3529 9.23036 17.0985 9.125 16.8333 9.125H8.83331ZM8.83331 14.125C8.5681 14.125 8.31374 14.2304 8.12621 14.4179C7.93867 14.6054 7.83331 14.8598 7.83331 15.125C7.83331 15.3902 7.93867 15.6446 8.12621 15.8321C8.31374 16.0196 8.5681 16.125 8.83331 16.125H12.8333C13.0985 16.125 13.3529 16.0196 13.5404 15.8321C13.728 15.6446 13.8333 15.3902 13.8333 15.125C13.8333 14.8598 13.728 14.6054 13.5404 14.4179C13.3529 14.2304 13.0985 14.125 12.8333 14.125H8.83331Z" fill="white"/>
</svg>
