<svg width="25" height="24" viewBox="0 0 25 24" fill="none" xmlns="http://www.w3.org/2000/svg">
<path fill-rule="evenodd" clip-rule="evenodd" d="M7.83325 1.125C8.09847 1.125 8.35282 1.23036 8.54036 1.41789C8.72789 1.60543 8.83325 1.85978 8.83325 2.125V4.125C8.83325 4.39022 8.72789 4.64457 8.54036 4.83211C8.35282 5.01964 8.09847 5.125 7.83325 5.125C7.56804 5.125 7.31368 5.01964 7.12615 4.83211C6.93861 4.64457 6.83325 4.39022 6.83325 4.125V2.125C6.83325 1.85978 6.93861 1.60543 7.12615 1.41789C7.31368 1.23036 7.56804 1.125 7.83325 1.125ZM12.8333 1.125C13.0985 1.125 13.3528 1.23036 13.5404 1.41789C13.7279 1.60543 13.8333 1.85978 13.8333 2.125V4.125C13.8333 4.39022 13.7279 4.64457 13.5404 4.83211C13.3528 5.01964 13.0985 5.125 12.8333 5.125C12.568 5.125 12.3137 5.01964 12.1261 4.83211C11.9386 4.64457 11.8333 4.39022 11.8333 4.125V2.125C11.8333 1.85978 11.9386 1.60543 12.1261 1.41789C12.3137 1.23036 12.568 1.125 12.8333 1.125ZM17.8333 1.125C18.0985 1.125 18.3528 1.23036 18.5404 1.41789C18.7279 1.60543 18.8333 1.85978 18.8333 2.125V4.125C18.8333 4.39022 18.7279 4.64457 18.5404 4.83211C18.3528 5.01964 18.0985 5.125 17.8333 5.125C17.568 5.125 17.3137 5.01964 17.1261 4.83211C16.9386 4.64457 16.8333 4.39022 16.8333 4.125V2.125C16.8333 1.85978 16.9386 1.60543 17.1261 1.41789C17.3137 1.23036 17.568 1.125 17.8333 1.125Z" fill="#868A8D"/>
<path fill-rule="evenodd" clip-rule="evenodd" d="M14.3893 2.375H11.2773C9.67525 2.375 8.39625 2.375 7.39325 2.51C6.35625 2.65 5.50325 2.945 4.82825 3.62C4.15325 4.295 3.85825 5.148 3.71825 6.185C3.58325 7.188 3.58325 8.467 3.58325 10.069V15.181C3.58325 16.783 3.58325 18.062 3.71825 19.065C3.85825 20.102 4.15325 20.955 4.82825 21.63C5.50325 22.305 6.35625 22.6 7.39325 22.74C8.39625 22.875 9.67525 22.875 11.2773 22.875H14.3893C15.9913 22.875 17.2703 22.875 18.2733 22.74C19.3103 22.6 20.1633 22.305 20.8383 21.63C21.5133 20.955 21.8083 20.102 21.9483 19.065C22.0833 18.062 22.0833 16.783 22.0833 15.181V10.069C22.0833 8.467 22.0833 7.188 21.9483 6.185C21.8083 5.148 21.5133 4.295 20.8383 3.62C20.1633 2.945 19.3103 2.65 18.2733 2.51C17.2703 2.375 15.9913 2.375 14.3893 2.375ZM8.83325 9.125C8.56804 9.125 8.31368 9.23036 8.12615 9.41789C7.93861 9.60543 7.83325 9.85978 7.83325 10.125C7.83325 10.3902 7.93861 10.6446 8.12615 10.8321C8.31368 11.0196 8.56804 11.125 8.83325 11.125H16.8333C17.0985 11.125 17.3528 11.0196 17.5404 10.8321C17.7279 10.6446 17.8333 10.3902 17.8333 10.125C17.8333 9.85978 17.7279 9.60543 17.5404 9.41789C17.3528 9.23036 17.0985 9.125 16.8333 9.125H8.83325ZM8.83325 14.125C8.56804 14.125 8.31368 14.2304 8.12615 14.4179C7.93861 14.6054 7.83325 14.8598 7.83325 15.125C7.83325 15.3902 7.93861 15.6446 8.12615 15.8321C8.31368 16.0196 8.56804 16.125 8.83325 16.125H12.8333C13.0985 16.125 13.3528 16.0196 13.5404 15.8321C13.7279 15.6446 13.8333 15.3902 13.8333 15.125C13.8333 14.8598 13.7279 14.6054 13.5404 14.4179C13.3528 14.2304 13.0985 14.125 12.8333 14.125H8.83325Z" fill="#868A8D"/>
</svg>
